HIERARCHY
ROOT Hips
{
	OFFSET 0.000000 0.000000 0.000000
	CHANNELS 6 Xposition Yposition Zposition Zrotation Xrotation Yrotation
	JOINT Spine
	{
		OFFSET 0.000000 -0.000000 0.070167
		CHANNELS 6 Xposition Yposition Zposition Zrotation Xrotation Yrotation
		JOINT Spine1
		{
			OFFSET 0.000000 -0.000000 0.166666
			CHANNELS 6 Xposition Yposition Zposition Zrotation Xrotation Yrotation
			JOINT Neck
			{
				OFFSET 0.000000 -0.000000 0.183780
				CHANNELS 6 Xposition Yposition Zposition Zrotation Xrotation Yrotation
				JOINT Head
				{
					OFFSET 0.000000 -0.017114 0.132633
					CHANNELS 6 Xposition Yposition Zposition Zrotation Xrotation Yrotation
					End Site
					{
						OFFSET 0.000000 -0.000000 0.171140
					}
				}
			}
			JOINT LeftShoulder
			{
				OFFSET 0.034466 0.004091 0.144174
				CHANNELS 6 Xposition Yposition Zposition Zrotation Xrotation Yrotation
				JOINT LeftArm
				{
					OFFSET 0.121044 0.000000 0.000000
					CHANNELS 6 Xposition Yposition Zposition Zrotation Xrotation Yrotation
					JOINT LeftForeArm
					{
						OFFSET 0.257070 0.000000 0.000000
						CHANNELS 6 Xposition Yposition Zposition Zrotation Xrotation Yrotation
						JOINT LeftHand
						{
							OFFSET 0.224060 0.000000 0.000000
							CHANNELS 6 Xposition Yposition Zposition Zrotation Xrotation Yrotation
							End Site
							{
								OFFSET 0.128355 0.000000 0.000000
							}
						}
					}
				}
			}
			JOINT RightShoulder
			{
				OFFSET -0.033538 0.004091 0.144174
				CHANNELS 6 Xposition Yposition Zposition Zrotation Xrotation Yrotation
				JOINT RightArm
				{
					OFFSET -0.121044 0.000000 0.000000
					CHANNELS 6 Xposition Yposition Zposition Zrotation Xrotation Yrotation
					JOINT RightForeArm
					{
						OFFSET -0.257070 0.000000 0.000000
						CHANNELS 6 Xposition Yposition Zposition Zrotation Xrotation Yrotation
						JOINT RightHand
						{
							OFFSET -0.224060 0.000000 0.000000
							CHANNELS 6 Xposition Yposition Zposition Zrotation Xrotation Yrotation
							End Site
							{
								OFFSET -0.128355 0.000000 0.000000
							}
						}
					}
				}
			}
		}
	}
	JOINT LeftUpLeg
	{
		OFFSET 0.085570 0.000000 0.000000
		CHANNELS 6 Xposition Yposition Zposition Zrotation Xrotation Yrotation
		JOINT LeftLeg
		{
			OFFSET 0.000000 0.000000 -0.385526
			CHANNELS 6 Xposition Yposition Zposition Zrotation Xrotation Yrotation
			JOINT LeftFoot
			{
				OFFSET 0.000000 0.000000 -0.365921
				CHANNELS 6 Xposition Yposition Zposition Zrotation Xrotation Yrotation
				JOINT LeftToeBase
				{
					OFFSET 0.000000 -0.128355 -0.055620
					CHANNELS 6 Xposition Yposition Zposition Zrotation Xrotation Yrotation
					End Site
					{
						OFFSET 0.000000 -0.034228 0.000000
					}
				}
			}
		}
	}
	JOINT RightUpLeg
	{
		OFFSET -0.085570 0.000000 0.000000
		CHANNELS 6 Xposition Yposition Zposition Zrotation Xrotation Yrotation
		JOINT RightLeg
		{
			OFFSET 0.000000 0.000000 -0.385526
			CHANNELS 6 Xposition Yposition Zposition Zrotation Xrotation Yrotation
			JOINT RightFoot
			{
				OFFSET 0.000000 0.000000 -0.365921
				CHANNELS 6 Xposition Yposition Zposition Zrotation Xrotation Yrotation
				JOINT RightToeBase
				{
					OFFSET 0.000000 -0.128355 -0.055620
					CHANNELS 6 Xposition Yposition Zposition Zrotation Xrotation Yrotation
					End Site
					{
						OFFSET 0.000000 -0.034228 0.000000
					}
				}
			}
		}
	}
}
MOTION
Frames: 5
Frame Time: 0.016667
0.690034 -0.031472 0.828426 -18.863534 -5.923504 -1.763189 -0.000000 0.000000 0.070167 -1.182108 0.753087 0.734616 0.000000 -0.000000 0.166666 -0.382624 -1.981455 0.544499 -0.000000 -0.000000 0.183780 -1.863098 10.911533 -0.739897 0.000000 -0.017114 0.132633 -2.910027 4.460517 -11.454598 0.034466 0.004091 0.144174 0.123140 6.396253 -7.872405 0.121044 0.000000 -0.000000 14.301565 1.760668 53.667081 0.257070 0.000000 -0.000000 -1.653834 8.055113 -3.637150 0.224060 -0.000000 -0.000000 -9.005429 -1.295354 -22.756652 -0.033538 0.004091 0.144174 -15.158252 3.386285 9.842414 -0.121044 0.000000 0.000000 11.001475 5.782647 -46.506034 -0.257070 -0.000000 -0.000000 40.042520 9.284633 26.830412 -0.224060 0.000000 -0.000000 9.055183 0.511274 14.706891 0.085570 -0.000000 -0.000000 9.456598 8.904683 -0.535929 -0.000000 0.000000 -0.385526 8.067791 9.719915 -1.863838 0.000000 0.000000 -0.365921 16.134162 -6.484251 8.250238 -0.000000 -0.128355 -0.055620 -0.000000 0.000003 -0.000001 -0.085570 0.000000 0.000000 4.748923 8.268879 6.253435 0.000000 0.000000 -0.385526 6.848279 1.341798 -2.702513 -0.000000 0.000000 -0.365921 1.134505 -1.129978 2.418556 -0.000000 -0.128355 -0.055620 0.000000 0.000000 0.000000 
0.690591 -0.031338 0.828067 -19.362779 -5.832725 -1.793470 0.000000 -0.000000 0.070167 -1.271007 0.713697 0.718533 0.000000 -0.000000 0.166666 -0.415413 -1.549200 0.470691 0.000000 -0.000000 0.183780 -1.782396 10.261896 -0.728153 -0.000000 -0.017114 0.132633 -2.819890 4.769252 -11.711147 0.034466 0.004091 0.144174 -0.520087 5.846136 -7.092303 0.121044 0.000000 0.000000 12.767445 3.884287 54.979133 0.257070 -0.000000 -0.000000 -1.653834 8.055113 -3.637148 0.224060 -0.000000 -0.000000 -9.005428 -1.295356 -22.756650 -0.033538 0.004091 0.144174 -15.629838 3.495923 9.348882 -0.121044 0.000000 0.000000 11.872436 5.940148 -48.144088 -0.257070 0.000000 -0.000000 40.826868 9.472719 27.168433 -0.224060 -0.000000 -0.000000 9.260960 0.379603 14.696499 0.085570 -0.000000 0.000000 9.709742 8.661640 -0.471844 -0.000000 0.000000 -0.385526 8.340008 10.124601 -1.941993 0.000000 0.000000 -0.365921 16.087320 -6.707713 8.327163 -0.000000 -0.128355 -0.055620 -0.000001 0.000004 -0.000000 -0.085570 -0.000000 0.000000 4.524628 8.061291 6.394224 -0.000000 0.000000 -0.385526 6.991834 1.324726 -2.701101 -0.000000 0.000000 -0.365921 1.656352 -1.266219 2.323353 0.000000 -0.128355 -0.055620 0.000000 -0.000000 -0.000000 
0.690916 -0.031227 0.827809 -19.869336 -5.800194 -1.753084 0.000000 -0.000000 0.070167 -1.381942 0.677933 0.689399 -0.000000 -0.000000 0.166666 -0.455836 -1.053610 0.336597 -0.000000 -0.000000 0.183780 -1.748860 9.726131 -0.761127 0.000000 -0.017114 0.132633 -2.778444 4.928613 -11.839461 0.034466 0.004091 0.144174 -0.583717 5.880652 -6.506931 0.121044 -0.000000 0.000000 10.600060 4.657818 56.565724 0.257070 -0.000000 -0.000000 -1.653832 8.055113 -3.637153 0.224060 0.000000 -0.000000 -9.005429 -1.295354 -22.756647 -0.033538 0.004091 0.144174 -16.115406 3.655234 8.962345 -0.121044 -0.000000 0.000000 12.836138 5.884971 -49.835594 -0.257070 0.000000 -0.000000 41.512599 9.460991 27.187377 -0.224060 -0.000000 -0.000000 9.193141 0.208731 15.284389 0.085570 -0.000000 -0.000000 9.979922 8.474440 -0.531818 0.000000 0.000000 -0.385526 8.609596 10.540061 -1.961793 0.000000 0.000000 -0.365921 16.061895 -6.950380 8.360117 -0.000000 -0.128355 -0.055620 -0.000001 0.000001 -0.000000 -0.085570 0.000000 0.000000 4.798707 8.081423 6.322695 -0.000000 0.000000 -0.385526 7.000511 1.076388 -2.580566 -0.000000 0.000000 -0.365921 1.781822 -1.267867 2.190614 0.000000 -0.128355 -0.055620 0.000001 -0.000003 -0.000000 
0.691401 -0.031057 0.827489 -20.427788 -5.732283 -1.746602 -0.000000 -0.000000 0.070167 -1.453623 0.791452 0.632270 0.000000 -0.000000 0.166666 -0.480725 -0.877082 0.273397 -0.000000 -0.000000 0.183780 -1.716138 9.277414 -0.753617 0.000000 -0.017114 0.132633 -2.736250 5.174981 -12.035533 0.034466 0.004091 0.144174 -0.467186 6.132270 -6.084916 0.121044 -0.000000 -0.000000 8.065814 5.048527 58.462335 0.257070 0.000000 0.000000 -1.653834 8.055111 -3.637147 0.224060 0.000000 -0.000000 -9.005428 -1.295357 -22.756654 -0.033538 0.004091 0.144174 -16.706187 3.763330 8.712838 -0.121044 -0.000000 0.000000 14.107319 5.893098 -51.704778 -0.257070 0.000000 -0.000000 41.763263 9.412416 27.208154 -0.224060 -0.000000 0.000000 9.182386 0.106039 15.608234 0.085570 0.000000 0.000000 10.302472 8.282189 -0.526947 -0.000000 0.000000 -0.385526 8.965961 10.884705 -2.043648 0.000000 0.000000 -0.365921 15.935309 -7.151662 8.429451 -0.000000 -0.128355 -0.055620 0.000001 0.000000 0.000000 -0.085570 0.000000 -0.000000 4.847313 7.970202 6.308032 -0.000000 0.000000 -0.385526 6.730065 0.959289 -2.415311 -0.000000 0.000000 -0.365921 2.469896 -1.316483 1.989363 0.000000 -0.128355 -0.055620 0.000001 0.000001 0.000001 
0.691698 -0.030952 0.827204 -20.956328 -5.730451 -1.709427 0.000000 -0.000000 0.070167 -1.579151 0.882273 0.697787 -0.000000 -0.000000 0.166666 -0.524391 -0.634758 -0.018004 -0.000000 -0.000000 0.183780 -1.676736 8.990163 -0.715891 -0.000000 -0.017114 0.132633 -2.692884 5.303070 -12.140450 0.034466 0.004091 0.144174 -0.366307 6.463633 -5.625907 0.121044 -0.000000 0.000000 5.485903 5.070003 60.469126 0.257070 0.000000 -0.000000 -1.653832 8.055114 -3.637151 0.224060 0.000000 0.000000 -9.005430 -1.295352 -22.756648 -0.033538 0.004091 0.144174 -17.231599 3.990248 8.593582 -0.121044 0.000000 -0.000000 15.308949 5.534361 -53.509949 -0.257070 0.000000 0.000000 41.830964 9.120469 26.909728 -0.224060 -0.000000 0.000000 9.271061 -0.036568 16.070735 0.085570 -0.000000 -0.000000 10.529786 8.137014 -0.574281 0.000000 0.000000 -0.385526 9.440364 11.270386 -2.126205 -0.000000 0.000000 -0.365921 15.765753 -7.378636 8.514996 -0.000000 -0.128355 -0.055620 -0.000000 0.000003 -0.000001 -0.085570 0.000000 -0.000000 4.854358 7.942113 6.290138 -0.000000 0.000000 -0.385526 6.504047 0.807995 -2.325688 -0.000000 0.000000 -0.365921 3.117597 -1.355655 1.808124 0.000000 -0.128355 -0.055620 0.000001 -0.000003 -0.000000 
